<svg xmlns="http://www.w3.org/2000/svg" xmlns:xlink="http://www.w3.org/1999/xlink" id="Capa_1" x="0px" y="0px" viewBox="0 0 400 119" style="enable-background:new 0 0 400 119;fill: #B9ACA8;" xml:space="preserve"><g> <path class="st0" d="M12.67,66.85h-0.04c-3.49,0-6.65-1.41-8.93-3.7C1.41,60.87,0,57.71,0,54.22c0-3.48,1.41-6.65,3.7-8.93  c2.28-2.28,5.44-3.7,8.93-3.7c3.49,0,6.65,1.41,8.93,3.7c2.28,2.28,3.7,5.44,3.7,8.92c0,3.49-1.41,6.65-3.7,8.94  C19.28,65.43,16.14,66.84,12.67,66.85L12.67,66.85z M8.68,58.17c1.01,1,2.4,1.63,3.93,1.64h0.02c1.54,0,2.94-0.63,3.95-1.64  c1.01-1,1.64-2.4,1.64-3.95c0-1.54-0.63-2.94-1.64-3.95c-1.01-1.01-2.41-1.64-3.95-1.64c-1.54,0-2.94,0.63-3.95,1.64  c-1.01,1.01-1.64,2.41-1.64,3.95C7.04,55.77,7.67,57.16,8.68,58.17z"></path> <path class="st0" d="M18.14,59.63c-1.08-1.61-0.65-3.79,0.96-4.87c1.61-1.08,3.79-0.65,4.87,0.96c0.05,0.07,15.58,23.8,51.32,23.45  c8.76-0.09,13.85-2.67,16.2-6.43c1.28-2.07,1.79-4.56,1.67-7.24c-0.01-0.3-0.04-0.6-0.07-0.91c-16.31,1.56-27.17-1.1-33.61-5.3  c-4.37-2.84-6.9-6.44-7.88-10.07c-1.03-3.87-0.29-7.74,1.9-10.85c3.02-4.28,8.76-7.04,16.26-6.15C81.6,33.62,92.1,43.07,97.06,53.5  c0.53,1.12,1,2.25,1.4,3.39c6.17-0.95,13.14-2.5,20.98-4.8c31.65-9.23,52.54-9.93,65.86-6.2c5.99,1.68,10.53,4.25,13.88,7.38  c3.45,3.22,5.61,7.01,6.78,10.98c1.56,5.34,1.27,10.98-0.14,16.03c-0.52,1.87-2.46,2.96-4.33,2.44c-1.87-0.53-2.96-2.47-2.43-4.34  c1.09-3.9,1.33-8.2,0.17-12.17c-0.82-2.81-2.36-5.49-4.82-7.79c-2.57-2.39-6.16-4.4-10.99-5.76c-12.19-3.41-31.77-2.65-62,6.18  c-7.86,2.29-14.96,3.87-21.34,4.87c0.05,0.5,0.09,1,0.11,1.49c0.19,4.05-0.64,7.92-2.71,11.26c-3.55,5.71-10.57,9.62-22.11,9.73  C35.79,86.58,18.19,59.71,18.14,59.63L18.14,59.63z M91.27,57.76c-0.18-0.42-0.37-0.84-0.57-1.26  c-4.04-8.51-12.43-16.18-21.77-17.31c-4.67-0.55-8.06,0.9-9.69,3.2c-1.01,1.43-1.34,3.21-0.86,5.02c0.55,2.05,2.11,4.17,4.9,5.98  C68.55,56.83,77.55,58.96,91.27,57.76z"></path> <path class="st0" d="M200.23,103.13h-0.05c-3.48,0-6.64-1.41-8.93-3.7c-2.28-2.28-3.7-5.44-3.7-8.92c0-3.49,1.41-6.65,3.7-8.93  c2.29-2.28,5.45-3.7,8.93-3.7c3.49,0,6.65,1.41,8.93,3.7c2.29,2.28,3.7,5.44,3.7,8.93c0,3.48-1.41,6.64-3.7,8.92  C206.84,101.71,203.7,103.12,200.23,103.13L200.23,103.13z M196.24,94.45c1.01,1.01,2.4,1.63,3.94,1.64h0.01  c1.54,0,2.94-0.63,3.95-1.64c1.01-1.01,1.64-2.41,1.64-3.95c0-1.54-0.62-2.94-1.64-3.95c-1.01-1.01-2.41-1.63-3.95-1.63  c-1.54,0-2.94,0.62-3.95,1.63c-1.01,1.02-1.63,2.41-1.63,3.95C194.6,92.05,195.23,93.44,196.24,94.45z"></path> <path class="st0" d="M22.38,48.93c-0.63,1.83-2.63,2.8-4.46,2.17c-1.83-0.63-2.8-2.63-2.17-4.46c0.05-0.15,16.38-49.8,92.72-38.17  c78.16,11.9,40.41,89.74,40.3,89.97c-0.83,1.75-2.92,2.5-4.68,1.68c-1.75-0.83-2.51-2.92-1.68-4.68  c0.1-0.2,33.71-69.55-34.99-80.01C36.91,4.69,22.42,48.8,22.38,48.93z"></path> <path class="st0" d="M142.29,119.25h-0.04c-3.49,0-6.65-1.41-8.93-3.7s-3.7-5.45-3.7-8.93c0-3.49,1.42-6.64,3.7-8.93  c2.28-2.28,5.45-3.7,8.93-3.7c3.49,0,6.64,1.42,8.93,3.7c2.28,2.28,3.7,5.44,3.7,8.93c0,3.48-1.42,6.65-3.7,8.93  C148.9,117.84,145.76,119.24,142.29,119.25L142.29,119.25z M138.3,110.58c1.01,1,2.4,1.63,3.94,1.63h0.01  c1.54,0,2.94-0.63,3.95-1.63c1.01-1.02,1.64-2.41,1.64-3.95c0-1.54-0.63-2.94-1.64-3.95c-1.01-1.02-2.41-1.64-3.95-1.64  c-1.54,0-2.94,0.62-3.95,1.64c-1.01,1.01-1.64,2.41-1.64,3.95C136.66,108.17,137.29,109.56,138.3,110.58z"></path> <path class="st0" d="M387.32,52.41h0.04c3.48,0,6.65,1.41,8.93,3.7c2.29,2.28,3.7,5.44,3.7,8.93c0,3.48-1.41,6.65-3.7,8.93  c-2.28,2.28-5.45,3.7-8.93,3.7c-3.48,0-6.64-1.41-8.93-3.7c-2.28-2.28-3.7-5.45-3.7-8.93c0-3.49,1.41-6.65,3.7-8.93  C380.72,53.83,383.86,52.42,387.32,52.41L387.32,52.41z M391.31,61.09c-1.01-1.01-2.4-1.63-3.93-1.64h-0.02  c-1.54,0-2.94,0.62-3.95,1.64c-1.01,1.01-1.63,2.41-1.63,3.95c0,1.54,0.62,2.94,1.63,3.95c1.01,1.02,2.41,1.64,3.95,1.64  c1.55,0,2.94-0.62,3.95-1.64c1.01-1.01,1.64-2.41,1.64-3.95C392.95,63.5,392.32,62.1,391.31,61.09z"></path> <path class="st0" d="M381.86,59.63c1.08,1.61,0.65,3.79-0.96,4.87c-1.61,1.08-3.79,0.65-4.87-0.96  c-0.05-0.07-15.58-23.79-51.31-23.45c-8.76,0.09-13.86,2.67-16.2,6.44c-1.28,2.06-1.79,4.56-1.66,7.24c0.01,0.3,0.04,0.6,0.07,0.91  c16.3-1.57,27.17,1.1,33.61,5.31c4.37,2.84,6.91,6.44,7.87,10.07c1.04,3.87,0.3,7.74-1.89,10.85c-3.02,4.28-8.76,7.04-16.27,6.15  c-11.84-1.41-22.33-10.85-27.3-21.29c-0.52-1.11-1-2.25-1.4-3.38c-6.18,0.95-13.14,2.5-20.98,4.79  c-31.64,9.25-52.54,9.94-65.85,6.21c-5.99-1.67-10.54-4.26-13.88-7.38c-3.45-3.22-5.62-7-6.78-10.98  c-1.56-5.34-1.27-10.98,0.14-16.03c0.52-1.87,2.46-2.96,4.34-2.44c1.87,0.52,2.96,2.46,2.43,4.34c-1.09,3.89-1.33,8.19-0.17,12.18  c0.82,2.8,2.36,5.48,4.82,7.78c2.57,2.4,6.16,4.4,11,5.76c12.18,3.41,31.77,2.64,62-6.18c7.86-2.3,14.96-3.88,21.34-4.87  c-0.05-0.5-0.09-1-0.12-1.49c-0.19-4.05,0.64-7.92,2.71-11.26c3.56-5.71,10.58-9.62,22.11-9.73  C364.21,32.69,381.81,59.55,381.86,59.63L381.86,59.63z M308.73,61.49c0.17,0.43,0.36,0.85,0.56,1.27  c4.04,8.5,12.44,16.18,21.77,17.29c4.68,0.56,8.07-0.9,9.69-3.2c1-1.42,1.34-3.2,0.86-5.01c-0.55-2.05-2.11-4.16-4.9-5.98  C331.44,62.44,322.45,60.29,308.73,61.49z"></path> <path class="st0" d="M199.76,16.12h0.05c3.49,0,6.65,1.42,8.93,3.7c2.29,2.28,3.7,5.44,3.7,8.92c0,3.49-1.41,6.65-3.7,8.94  c-2.28,2.28-5.44,3.7-8.93,3.7c-3.49,0-6.64-1.41-8.93-3.7c-2.29-2.29-3.7-5.45-3.7-8.94c0-3.48,1.41-6.64,3.7-8.92  C193.15,17.55,196.29,16.14,199.76,16.12L199.76,16.12z M203.76,24.8c-1.01-1-2.39-1.63-3.93-1.63h-0.02  c-1.54,0-2.94,0.63-3.95,1.63c-1.01,1.01-1.64,2.41-1.64,3.95c0,1.55,0.63,2.95,1.64,3.95c1.01,1.01,2.41,1.63,3.95,1.63  c1.54,0,2.94-0.62,3.95-1.63c1.01-1,1.64-2.41,1.64-3.95C205.39,27.21,204.77,25.81,203.76,24.8z"></path> <path class="st0" d="M377.61,70.33c0.63-1.83,2.63-2.8,4.46-2.17c1.83,0.63,2.8,2.63,2.18,4.46c-0.05,0.14-16.39,49.8-92.73,38.17  c-78.16-11.9-40.41-89.74-40.31-89.97c0.83-1.75,2.92-2.51,4.68-1.68c1.75,0.83,2.51,2.93,1.68,4.68  c-0.1,0.2-33.72,69.55,34.99,80.01C363.09,114.56,377.57,70.46,377.61,70.33z"></path> <path class="st0" d="M257.7,0h0.04c3.49,0,6.65,1.41,8.94,3.7s3.7,5.45,3.7,8.94c0,3.48-1.41,6.65-3.7,8.92  c-2.28,2.29-5.45,3.7-8.94,3.7c-3.48,0-6.64-1.41-8.93-3.7c-2.28-2.28-3.69-5.44-3.69-8.92c0-3.49,1.41-6.65,3.69-8.94  C251.09,1.43,254.24,0.01,257.7,0L257.7,0z M261.69,8.68c-1-1-2.39-1.63-3.92-1.63h-0.02c-1.54,0-2.94,0.62-3.95,1.63  c-1.01,1.01-1.63,2.41-1.63,3.95c0,1.54,0.62,2.94,1.63,3.95c1.01,1.01,2.41,1.64,3.95,1.64c1.55,0,2.95-0.63,3.95-1.64  c1.02-1.01,1.64-2.41,1.64-3.95C263.34,11.09,262.71,9.69,261.69,8.68z"></path></g></svg>
